<?xml version="1.0" encoding="iso-8859-1"?>
<!-- Generator: Adobe Illustrator 19.0.0, SVG Export Plug-In . SVG Version: 6.00 Build 0)  -->
<svg version="1.1" id="Capa_1" xmlns="http://www.w3.org/2000/svg" xmlns:xlink="http://www.w3.org/1999/xlink" x="0px" y="0px"
	 viewBox="0 0 512 512" style="enable-background:new 0 0 512 512;" xml:space="preserve">
<g>
	<g>
		<path d="M343.468,210.264h-14.244v30.361h14.244c8.633,0,12.951-4.795,12.951-14.39v-1.582
			C356.419,215.062,352.102,210.264,343.468,210.264z"/>
	</g>
</g>
<g>
	<g>
		<path d="M442.954,37.903H69.046C30.974,37.903,0,68.876,0,106.949v298.103c0,38.072,30.974,69.046,69.046,69.046h373.908
			c38.072,0,69.046-30.974,69.046-69.046V106.949C512,68.877,481.026,37.903,442.954,37.903z M306.775,197.459
			c0-1.82,0.768-3.403,2.303-4.748c1.533-1.343,3.548-2.014,6.044-2.014h29.786c10.264,0,18.49,2.662,24.677,7.985
			c6.187,5.324,9.28,13.694,9.28,25.109v0.72c0,11.417-3.237,19.834-9.712,25.252c-6.475,5.421-15.036,8.13-25.685,8.13h-14.244
			v31.081c0,2.207-1.105,3.91-3.31,5.107c-2.207,1.201-4.845,1.799-7.913,1.799c-3.071,0-5.709-0.598-7.914-1.799
			c-2.207-1.198-3.31-2.9-3.31-5.107V197.459z M223.896,193.562c1.151-1.911,2.828-2.866,5.036-2.866h62.16
			c2.205,0,3.886,0.955,5.036,2.866s1.727,4.171,1.727,6.779c0,2.797-0.6,5.148-1.799,7.06c-1.2,1.911-2.856,2.864-4.964,2.864
			h-19.857v78.661c0,2.221-1.104,3.937-3.31,5.144c-2.207,1.207-4.845,1.81-7.913,1.81c-3.071,0-5.709-0.603-7.914-1.81
			c-2.207-1.208-3.309-2.923-3.309-5.144v-78.661h-19.856c-2.111,0-3.766-0.953-4.964-2.864c-1.201-1.911-1.799-4.263-1.799-7.06
			C222.169,197.733,222.745,195.473,223.896,193.562z M179.725,111.735c0.05-0.48,0.12-0.972,0.22-1.451
			c0.101-0.48,0.221-0.961,0.36-1.431c0.14-0.471,0.31-0.932,0.5-1.382c0.18-0.449,0.39-0.9,0.62-1.33
			c0.229-0.431,0.49-0.852,0.76-1.262c0.271-0.41,0.561-0.811,0.871-1.181c0.31-0.39,0.64-0.75,0.991-1.101
			c0.35-0.351,0.71-0.681,1.101-0.991c0.37-0.311,0.772-0.601,1.181-0.881c0.41-0.271,0.831-0.521,1.262-0.75
			c0.43-0.23,0.881-0.44,1.331-0.62c0.449-0.19,0.91-0.36,1.381-0.5c0.47-0.141,0.951-0.26,1.431-0.36
			c0.48-0.1,0.971-0.17,1.451-0.22c4.442-0.45,8.956,1.181,12.088,4.323c0.35,0.35,0.68,0.711,0.991,1.101
			c0.31,0.37,0.609,0.771,0.881,1.181c0.27,0.41,0.52,0.831,0.751,1.262c0.229,0.43,0.439,0.881,0.63,1.33
			c0.18,0.45,0.35,0.911,0.49,1.382c0.14,0.47,0.27,0.95,0.359,1.431c0.101,0.479,0.17,0.971,0.22,1.451
			c0.051,0.489,0.08,0.99,0.08,1.48c0,0.49-0.029,0.981-0.08,1.472c-0.05,0.489-0.119,0.98-0.22,1.461
			c-0.09,0.479-0.22,0.95-0.359,1.421c-0.141,0.47-0.311,0.931-0.49,1.381c-0.19,0.45-0.4,0.9-0.63,1.331
			c-0.23,0.43-0.48,0.86-0.751,1.261c-0.271,0.41-0.57,0.811-0.881,1.19c-0.311,0.381-0.641,0.751-0.991,1.092
			c-0.34,0.35-0.711,0.68-1.091,0.99c-0.381,0.311-0.781,0.61-1.191,0.882c-0.4,0.27-0.831,0.52-1.261,0.75
			c-0.431,0.229-0.881,0.439-1.331,0.63c-0.45,0.18-0.911,0.35-1.381,0.489c-0.471,0.15-0.951,0.271-1.421,0.36
			c-0.48,0.1-0.972,0.17-1.461,0.22c-0.49,0.051-0.981,0.08-1.472,0.08c-0.489,0-0.99-0.029-1.48-0.08
			c-0.48-0.05-0.971-0.12-1.451-0.22c-0.479-0.09-0.961-0.21-1.431-0.36c-0.46-0.14-0.932-0.31-1.381-0.489
			c-0.45-0.19-0.901-0.4-1.331-0.63c-0.431-0.23-0.852-0.48-1.262-0.75c-0.409-0.271-0.811-0.57-1.181-0.882
			c-0.38-0.31-0.75-0.64-1.101-0.99c-0.351-0.341-0.681-0.71-0.991-1.092c-0.31-0.38-0.6-0.779-0.871-1.19
			c-0.27-0.4-0.53-0.831-0.76-1.261c-0.23-0.431-0.44-0.881-0.62-1.331c-0.19-0.45-0.36-0.911-0.5-1.381
			c-0.14-0.471-0.26-0.941-0.36-1.421c-0.1-0.48-0.17-0.972-0.22-1.461c-0.05-0.49-0.07-0.981-0.07-1.472
			S179.676,112.224,179.725,111.735z M213.104,190.696c2.205,0,3.886,0.955,5.036,2.866c1.151,1.911,1.727,4.171,1.727,6.779
			c0,2.797-0.6,5.148-1.799,7.06c-1.2,1.911-2.856,2.864-4.964,2.864h-19.857v78.661c0,2.221-1.104,3.937-3.31,5.144
			c-2.207,1.207-4.845,1.81-7.913,1.81c-3.071,0-5.709-0.603-7.914-1.81c-2.207-1.208-3.309-2.923-3.309-5.144v-78.661h-19.857
			c-2.111,0-3.766-0.953-4.964-2.864c-1.201-1.911-1.799-4.263-1.799-7.06c0-2.608,0.575-4.867,1.727-6.779
			c1.152-1.911,2.828-2.866,5.036-2.866H213.104z M119.685,111.735c0.05-0.48,0.12-0.972,0.22-1.451
			c0.101-0.48,0.221-0.961,0.36-1.431c0.14-0.471,0.31-0.932,0.5-1.382c0.18-0.449,0.39-0.9,0.62-1.33
			c0.229-0.431,0.479-0.852,0.75-1.262c0.28-0.41,0.57-0.811,0.881-1.181c0.31-0.39,0.64-0.75,0.991-1.101
			c0.35-0.351,0.71-0.681,1.101-0.991c0.37-0.311,0.772-0.601,1.181-0.881c0.41-0.271,0.831-0.521,1.262-0.75
			c0.43-0.23,0.881-0.44,1.331-0.62c0.449-0.19,0.91-0.36,1.381-0.5c0.47-0.141,0.951-0.26,1.431-0.36
			c0.48-0.1,0.971-0.17,1.451-0.22c0.98-0.1,1.971-0.1,2.952,0c0.489,0.05,0.98,0.12,1.461,0.22c0.479,0.101,0.95,0.22,1.421,0.36
			c0.47,0.14,0.931,0.31,1.381,0.5c0.45,0.18,0.9,0.39,1.331,0.62c0.43,0.229,0.86,0.479,1.261,0.75
			c0.41,0.279,0.811,0.569,1.191,0.881c0.38,0.31,0.75,0.64,1.091,0.991c0.35,0.35,0.68,0.711,0.991,1.101
			c0.31,0.37,0.609,0.771,0.881,1.181c0.27,0.41,0.52,0.831,0.75,1.262c0.229,0.43,0.439,0.881,0.63,1.33
			c0.18,0.45,0.35,0.911,0.49,1.382c0.149,0.47,0.27,0.95,0.359,1.431c0.101,0.479,0.17,0.971,0.22,1.451
			c0.051,0.489,0.08,0.99,0.08,1.48c0,0.49-0.029,0.981-0.08,1.472c-0.05,0.489-0.119,0.98-0.22,1.461
			c-0.09,0.479-0.21,0.95-0.359,1.421c-0.141,0.47-0.311,0.931-0.49,1.381c-0.19,0.45-0.4,0.9-0.63,1.331
			c-0.23,0.43-0.48,0.86-0.75,1.261c-0.271,0.41-0.57,0.811-0.881,1.19c-0.311,0.381-0.641,0.751-0.991,1.092
			c-0.34,0.35-0.711,0.68-1.091,0.99c-0.381,0.311-0.781,0.61-1.191,0.882c-0.4,0.27-0.831,0.52-1.261,0.75
			c-0.431,0.229-0.881,0.439-1.331,0.63c-0.45,0.18-0.911,0.35-1.381,0.489c-0.471,0.15-0.941,0.271-1.421,0.36
			c-0.48,0.1-0.972,0.17-1.461,0.22c-0.49,0.051-0.981,0.08-1.472,0.08c-0.489,0-0.99-0.029-1.48-0.08
			c-0.48-0.05-0.981-0.12-1.451-0.22c-0.479-0.09-0.961-0.21-1.431-0.36c-0.471-0.14-0.932-0.31-1.381-0.489
			c-0.45-0.19-0.901-0.4-1.331-0.63c-0.431-0.23-0.852-0.48-1.262-0.75c-0.409-0.271-0.811-0.57-1.181-0.882
			c-0.39-0.31-0.75-0.64-1.101-0.99c-0.351-0.341-0.681-0.71-0.991-1.092c-0.31-0.38-0.6-0.779-0.881-1.19
			c-0.271-0.4-0.521-0.831-0.75-1.261c-0.23-0.431-0.44-0.881-0.62-1.331c-0.19-0.45-0.36-0.911-0.5-1.381
			c-0.14-0.471-0.26-0.941-0.36-1.421c-0.1-0.48-0.17-0.972-0.22-1.461c-0.05-0.49-0.07-0.981-0.07-1.472
			S119.636,112.224,119.685,111.735z M112.814,197.459c0-2.206,1.102-3.886,3.31-5.036c2.206-1.15,4.842-1.726,7.913-1.726
			c3.069,0,5.706,0.575,7.914,1.726c2.206,1.151,3.309,2.831,3.309,5.036v91.515c0,2.207-1.104,3.91-3.309,5.107
			c-2.208,1.201-4.845,1.799-7.914,1.799c-3.071,0-5.708-0.598-7.913-1.799c-2.208-1.198-3.31-2.9-3.31-5.107v-38.995H84.18v38.995
			c0,2.207-1.105,3.91-3.31,5.107c-2.207,1.201-4.845,1.799-7.913,1.799c-3.071,0-5.709-0.598-7.914-1.799
			c-2.207-1.198-3.31-2.9-3.31-5.107v-91.515c0-2.206,1.103-3.886,3.31-5.036c2.206-1.15,4.843-1.726,7.914-1.726
			c3.068,0,5.706,0.575,7.913,1.726c2.206,1.151,3.31,2.831,3.31,5.036v35.253h28.634V197.459z M59.866,116.148
			c-0.1-0.48-0.17-0.972-0.22-1.461c-0.05-0.49-0.07-0.981-0.07-1.472s0.021-0.991,0.07-1.48c0.05-0.48,0.12-0.972,0.22-1.451
			c0.101-0.48,0.221-0.961,0.36-1.431c0.14-0.471,0.31-0.932,0.49-1.382c0.189-0.449,0.399-0.9,0.63-1.33
			c0.229-0.431,0.479-0.852,0.75-1.262c0.27-0.41,0.57-0.811,0.881-1.181c0.31-0.39,0.64-0.75,0.991-1.101
			c0.35-0.351,0.71-0.681,1.101-0.991c0.37-0.311,0.772-0.601,1.181-0.881c0.41-0.271,0.831-0.521,1.262-0.75
			c0.43-0.23,0.881-0.44,1.331-0.62c0.449-0.19,0.91-0.36,1.381-0.5c0.47-0.141,0.951-0.26,1.431-0.36
			c0.48-0.1,0.971-0.17,1.451-0.22c0.98-0.1,1.971-0.1,2.952,0c0.489,0.05,0.98,0.12,1.461,0.22c0.479,0.101,0.95,0.22,1.421,0.36
			c0.47,0.14,0.931,0.31,1.381,0.5c0.45,0.18,0.9,0.39,1.331,0.62c0.43,0.229,0.86,0.479,1.261,0.75
			c0.41,0.279,0.811,0.569,1.191,0.881c0.38,0.31,0.75,0.64,1.091,0.991c0.35,0.35,0.68,0.711,0.991,1.101
			c0.31,0.37,0.609,0.771,0.881,1.181c0.27,0.41,0.52,0.831,0.75,1.262c0.229,0.43,0.439,0.881,0.63,1.33
			c0.18,0.45,0.35,0.911,0.49,1.382c0.149,0.47,0.27,0.95,0.359,1.431c0.101,0.479,0.17,0.971,0.22,1.451
			c0.051,0.489,0.08,0.99,0.08,1.48c0,0.49-0.029,0.981-0.08,1.472c-0.05,0.489-0.119,0.98-0.22,1.461
			c-0.09,0.479-0.21,0.95-0.359,1.421c-0.141,0.47-0.311,0.931-0.49,1.381c-0.19,0.45-0.4,0.9-0.63,1.331
			c-0.23,0.43-0.48,0.86-0.75,1.261c-0.271,0.41-0.57,0.811-0.881,1.19c-0.311,0.381-0.641,0.751-0.991,1.092
			c-0.34,0.35-0.71,0.68-1.091,0.99c-0.381,0.311-0.781,0.61-1.191,0.882c-0.4,0.27-0.831,0.52-1.261,0.75
			c-0.431,0.229-0.881,0.439-1.331,0.63c-0.45,0.18-0.911,0.35-1.381,0.489c-0.471,0.15-0.941,0.271-1.421,0.36
			c-0.48,0.1-0.972,0.17-1.461,0.22c-0.49,0.051-0.981,0.08-1.472,0.08c-0.489,0-0.99-0.029-1.48-0.08
			c-0.48-0.05-0.981-0.12-1.451-0.22c-0.479-0.09-0.961-0.21-1.431-0.36c-0.471-0.14-0.932-0.31-1.381-0.489
			c-0.45-0.19-0.901-0.4-1.331-0.63c-0.431-0.23-0.852-0.48-1.262-0.75c-0.409-0.271-0.811-0.57-1.181-0.882
			c-0.39-0.31-0.75-0.64-1.101-0.99c-0.351-0.341-0.681-0.71-0.991-1.092c-0.31-0.38-0.61-0.779-0.881-1.19
			c-0.271-0.4-0.521-0.831-0.75-1.261c-0.23-0.431-0.44-0.881-0.63-1.331c-0.181-0.45-0.351-0.911-0.49-1.381
			C60.087,117.097,59.967,116.627,59.866,116.148z M437.146,355.133H75.387c-8.29,0-15.01-6.72-15.01-15.01s6.72-15.01,15.01-15.01
			h361.76c8.289,0,15.01,6.72,15.01,15.01S445.437,355.133,437.146,355.133z M444.334,289.054
			c-6.618,5.511-15.302,8.264-26.044,8.264c-9.306,0-17.411-1.917-24.318-5.755c-6.906-3.836-10.36-8.152-10.36-12.951
			c0-2.685,0.982-5.371,2.949-8.057c1.965-2.686,4.245-4.029,6.835-4.029c1.439,0,3.045,0.582,4.82,1.744
			c1.774,1.165,3.404,2.453,4.893,3.867c1.485,1.417,3.572,2.705,6.259,3.868c2.685,1.164,5.516,1.744,8.489,1.744
			c3.742,0,7.002-0.792,9.785-2.375c2.781-1.582,4.173-3.957,4.173-7.122c0-3.166-1.56-5.947-4.676-8.347
			c-3.118-2.397-6.907-4.579-11.368-6.546c-4.46-1.965-8.945-4.174-13.453-6.619c-4.51-2.446-8.324-5.922-11.44-10.432
			c-3.118-4.508-4.677-9.88-4.677-16.116c0-10.169,3.597-17.771,10.792-22.807c7.194-5.035,15.875-7.554,26.043-7.554
			c2.494,0,5.108,0.148,7.842,0.445c2.734,0.296,5.803,0.865,9.209,1.706c3.403,0.841,6.188,2.198,8.346,4.076
			c2.158,1.879,3.237,4.153,3.237,6.818c0,2.536-0.791,5.166-2.374,7.896c-1.583,2.73-3.766,4.095-6.547,4.095
			c-1.151,0-3.597-0.911-7.338-2.734c-3.742-1.82-7.867-2.733-12.375-2.733c-4.797,0-8.396,0.841-10.791,2.518
			c-2.399,1.68-3.597,3.719-3.597,6.115c0,2.208,1.126,4.223,3.381,6.044c2.253,1.823,5.059,3.381,8.418,4.676
			c3.356,1.296,7.026,2.975,11.007,5.036c3.981,2.064,7.649,4.316,11.008,6.763c3.356,2.446,6.162,5.877,8.418,10.288
			c2.253,4.413,3.381,9.449,3.381,15.109C454.263,275.844,450.952,283.544,444.334,289.054z"/>
	</g>
</g>
<g>
</g>
<g>
</g>
<g>
</g>
<g>
</g>
<g>
</g>
<g>
</g>
<g>
</g>
<g>
</g>
<g>
</g>
<g>
</g>
<g>
</g>
<g>
</g>
<g>
</g>
<g>
</g>
<g>
</g>
</svg>
